<svg width="136" height="83" viewBox="0 0 136 83" fill="none" xmlns="http://www.w3.org/2000/svg">
<g clip-path="url(#clip0_71_838)">
<path d="M22.4965 10.808C22.5712 10.5582 22.7871 10.4416 23.003 10.4416C23.2771 10.4416 23.6009 10.5998 23.5179 11.0744C23.3352 12.2235 23.0612 13.4808 22.9449 13.8971C22.8619 14.1886 22.7207 14.2885 22.43 14.2718C20.8688 14.2718 15.8281 14.047 13.6524 14.2885C13.2454 14.3468 13.0627 14.0637 13.0627 13.7722C13.0627 13.5308 13.2039 13.281 13.5195 13.3059C14.0676 13.3476 14.8482 13.3476 14.9478 12.6481C15.1388 11.4991 15.1139 2.18988 14.9893 1.6986C14.8648 1.30725 14.433 0.982512 13.5776 1.14905C13.2704 1.20733 13.1292 0.982512 13.1292 0.74104C13.1292 0.499567 13.2953 0.224788 13.6607 0.266421C15.6122 0.407974 17.082 0.324708 18.336 0.266421C18.8259 0.249768 19.0086 0.474587 19.0086 0.699407C19.0086 0.949206 18.7844 1.19068 18.5021 1.15737C17.6384 1.07411 17.0073 1.28227 16.9243 1.74856C16.7416 2.22318 16.617 11.3325 16.9907 12.773C17.1485 13.4891 19.8557 13.4308 20.819 13.2144C21.7657 12.9895 22.4217 11.2076 22.4965 10.8329" fill="white"/>
<path d="M28.7829 1.04916C28.8244 0.949238 28.949 0.882624 29.1732 0.882624C29.7877 0.882624 30.1116 0.741071 30.56 0.116573C30.643 0.0333066 30.751 0 30.8506 0C30.9503 0 31.0333 0.0333066 31.0583 0.0915931C31.6562 1.84019 35.0775 10.8496 36.0242 12.5732C36.2318 12.9396 36.481 13.4975 37.3363 13.3726C37.7017 13.3143 37.8844 13.5558 37.8844 13.8056C37.8844 14.0554 37.7017 14.3218 37.3695 14.2802C36.7799 14.2219 33.9482 14.1803 32.7606 14.2802C32.4119 14.3052 32.2541 14.097 32.2541 13.8722C32.2541 13.6224 32.4368 13.3559 32.7025 13.3726C33.5828 13.4392 33.9149 13.2061 33.807 12.4067C33.7821 12.032 32.9516 9.95867 32.7606 9.48405C32.7191 9.38413 32.6195 9.28421 32.4949 9.25923C30.751 9.07604 28.268 9.17596 27.5953 9.2176C27.205 9.24258 27.0057 9.31752 26.8313 9.66723C26.4078 10.6165 26.059 11.6406 25.893 12.1153C25.5691 13.1561 26.0175 13.4892 27.5123 13.3226C27.8528 13.281 28.0438 13.5475 28.0438 13.7973C28.0438 14.047 27.8528 14.3135 27.5123 14.2719C26.5656 14.2136 24.6224 14.1719 23.2522 14.2719C22.9034 14.3135 22.7207 14.047 22.7207 13.7973C22.7207 13.5808 22.8868 13.3476 23.2522 13.3892C23.8418 13.4475 24.3151 13.0229 24.7054 12.0986C24.913 11.6656 25.9843 9.18429 28.9074 1.94843C29.0735 1.57374 28.6583 1.3739 28.7829 1.04083M30.2195 2.81441C30.0949 2.56461 29.9289 2.36477 29.7046 2.83939C29.1732 3.91352 27.994 6.51144 27.5704 7.81039C27.4459 8.07685 27.587 8.20175 27.8528 8.26836C28.1683 8.33497 29.9704 8.36828 31.6728 8.22673C31.9966 8.21007 32.2292 8.06019 32.1046 7.69382C31.8306 6.86948 30.751 3.96348 30.2195 2.81441Z" fill="white"/>
<path d="M51.4204 12.7814C51.711 12.5566 51.794 12.39 51.8356 11.5241C51.8522 11.1161 51.8107 10.4166 51.794 9.75881C51.794 9.53399 51.711 9.35081 51.4204 9.32583C51.0384 9.30917 50.2578 9.32583 49.8924 9.35081C49.5851 9.36746 49.419 9.10933 49.419 8.84288C49.419 8.57643 49.5851 8.33496 49.9588 8.34328C51.3705 8.46818 53.3885 8.42655 54.2438 8.36826C54.7172 8.34328 54.875 8.55145 54.875 8.7846C54.875 9.02607 54.6757 9.30085 54.4265 9.27587C53.6542 9.16762 53.6127 9.45905 53.5878 9.76714C53.5213 10.6498 53.5878 12.6065 53.5878 12.7064C53.5878 13.0145 53.4881 13.2227 53.1975 13.3226C51.7193 14.0137 50.3242 14.455 48.4889 14.455C43.9215 14.455 41.1479 11.549 41.1479 7.13592C41.1313 3.03088 43.9548 0.083252 48.8792 0.083252C51.1961 0.083252 53.3054 0.940896 53.4051 1.57372C53.4715 2.17324 53.5047 2.62288 53.5546 3.44722C53.5712 3.77196 53.1394 3.94682 52.8321 3.94682C52.666 3.94682 52.5248 3.90518 52.5082 3.79694C52.2591 2.66451 50.8474 0.915917 48.2398 0.915917C45.0426 0.915917 43.2323 3.68869 43.2323 6.77787C43.2323 10.3167 45.4412 13.4142 48.9789 13.4142C50.0252 13.4142 50.8806 13.1811 51.4121 12.7814" fill="white"/>
<path d="M67.8796 13.6057C68.0374 13.6057 68.1287 13.8055 68.1287 13.997C68.1287 14.1469 68.0872 14.2718 67.9876 14.3301C67.7966 14.4134 66.9578 14.5549 66.3848 14.5549C64.3752 14.5549 62.3655 10.733 61.1365 9.12596C60.8707 8.75959 60.5884 8.49313 60.3227 8.42652C60.0735 8.36823 59.6998 8.34326 59.5171 8.36824C59.351 8.38489 59.1684 8.38489 59.1517 8.87616C59.1351 9.4507 59.2265 12.007 59.2763 12.3983C59.4009 13.4641 59.9988 13.3226 60.8126 13.2643C61.1448 13.2643 61.3275 13.5058 61.3275 13.7722C61.3275 14.047 61.1448 14.3135 60.796 14.2885C59.3012 14.2302 57.6985 14.1636 55.9546 14.2885C55.5892 14.3135 55.4065 14.0803 55.4065 13.8139C55.4065 13.5308 55.6058 13.2393 55.9961 13.281C56.4445 13.3392 57.2667 13.3809 57.3331 12.415C57.4992 9.86703 57.4328 3.20571 57.3331 1.90676C57.2667 1.25728 57.0092 1.19067 56.2286 1.3572C55.9048 1.43214 55.7221 1.20732 55.7221 0.965847C55.7221 0.724375 55.8881 0.449595 56.212 0.432942C57.9559 0.308042 59.6334 0.249756 60.2728 0.249756C63.6112 0.249756 66.1108 1.32389 66.1108 3.93013C66.1108 6.53637 63.6112 7.66047 63.1793 7.86031C62.789 8.02684 62.7309 8.25166 63.0216 8.61803C64.1177 9.9503 66.2187 13.614 67.8962 13.614M60.4804 7.43565C62.5731 7.43565 64.0264 5.99514 64.0264 4.18826C64.0264 1.92341 62.515 1.06577 60.3393 1.06577C59.0687 1.06577 59.0687 1.59867 59.0687 1.80684C59.0521 2.48962 59.1102 5.60379 59.1102 6.36984C59.1351 7.08593 59.1767 7.43565 59.6666 7.43565H60.4804Z" fill="white"/>
<path d="M74.0082 1.04916C74.0497 0.949238 74.1743 0.882624 74.3985 0.882624C75.013 0.882624 75.3452 0.741071 75.7853 0.116573C75.8684 0.0333066 75.9763 0 76.076 0C76.1673 0 76.2587 0.0333066 76.2753 0.0915931C76.8732 1.84019 80.3029 10.8496 81.2413 12.5732C81.4406 12.9396 81.6897 13.4975 82.5451 13.3726C82.9188 13.3143 83.0931 13.5558 83.0931 13.8056C83.0931 14.0554 82.9188 14.3218 82.5866 14.2802C81.9887 14.2219 79.1652 14.1803 77.9694 14.2802C77.6289 14.3052 77.4628 14.097 77.4628 13.8722C77.4628 13.6224 77.6455 13.3559 77.9112 13.3726C78.7915 13.4392 79.1237 13.2061 79.0157 12.4067C78.9908 12.032 78.1521 9.95867 77.9694 9.48405C77.9279 9.38413 77.8282 9.28421 77.7119 9.25923C75.968 9.07604 73.485 9.17596 72.8124 9.2176C72.4221 9.24258 72.2228 9.31752 72.0484 9.66723C71.6249 10.6165 71.2761 11.6406 71.11 12.1153C70.7861 13.1561 71.2263 13.4892 72.7293 13.3226C73.0698 13.281 73.2608 13.5475 73.2608 13.7973C73.2608 14.047 73.0781 14.3135 72.7293 14.2719C71.7827 14.2136 69.8311 14.1719 68.4609 14.2719C68.1121 14.3135 67.9294 14.047 67.9294 13.7973C67.9294 13.5808 68.0955 13.3476 68.4609 13.3892C69.0588 13.4475 69.5239 13.0229 69.9225 12.0986C70.1218 11.6656 71.1847 9.18429 74.1245 1.94843C74.2823 1.57374 73.8753 1.3739 73.9999 1.04083M75.4449 2.81441C75.3203 2.56461 75.1542 2.36477 74.93 2.83939C74.3985 3.91352 73.2359 6.51144 72.8041 7.81039C72.6795 8.07685 72.8207 8.20175 73.0864 8.26836C73.3937 8.33497 75.204 8.36828 76.8981 8.22673C77.2303 8.21007 77.4545 8.06019 77.3299 7.69382C77.0725 6.86948 75.9846 3.96348 75.4449 2.81441Z" fill="white"/>
<path d="M86.3152 3.42234C86.282 4.98775 86.3983 10.7831 86.4564 11.7074C86.5395 12.7149 86.6889 13.4809 88.0841 13.2894C88.574 13.2228 88.7982 13.5309 88.7982 13.8223C88.7982 14.0721 88.6155 14.3219 88.3249 14.272C87.4861 14.2137 86.0495 14.1138 83.8156 14.272C83.5084 14.3136 83.3423 14.0471 83.3423 13.7724C83.3423 13.4976 83.5084 13.2644 83.8572 13.2811C85.2108 13.381 85.1858 12.6066 85.244 11.699C85.3519 9.9088 85.2689 5.22922 85.244 3.53891C85.2274 1.73203 85.0198 1.17415 84.098 1.25741C83.7492 1.28239 83.5914 1.03259 83.5914 0.791122C83.5914 0.52467 83.7907 0.233237 84.2059 0.27487C84.2059 0.27487 85.8668 0.316503 86.3568 0.27487C86.8301 0.233237 87.1789 0.766142 87.6938 1.59048C89.4294 4.20505 91.5304 7.26092 94.1047 10.5166C94.2542 10.6499 94.5448 10.6499 94.5614 10.4917C94.6362 9.20103 94.6362 3.77206 94.5116 2.40649C94.4286 1.53219 94.0632 1.07423 92.8507 1.11586C92.5435 1.11586 92.4023 0.907695 92.4023 0.682876C92.4023 0.433076 92.5767 0.183277 92.9338 0.233237C94.9019 0.408096 95.4417 0.291523 96.6873 0.233237C97.1773 0.216584 97.3849 0.441403 97.3849 0.682876C97.3849 0.891042 97.2022 1.11586 96.9116 1.11586C95.9649 1.11586 95.7157 1.76534 95.6991 2.3482C95.5746 5.73715 95.5746 10.092 95.7157 14.2303C95.7157 14.3969 95.3919 14.4968 95.0431 14.4968C94.7524 14.4968 94.4618 14.4385 94.3372 14.272C91.547 10.2585 88.6986 6.19512 86.5727 3.33908C86.5145 3.28079 86.3069 3.23083 86.3069 3.41402" fill="white"/>
<path d="M108.479 12.7814C108.762 12.5566 108.845 12.39 108.895 11.5241C108.911 11.1161 108.87 10.4166 108.845 9.75881C108.845 9.53399 108.762 9.35081 108.479 9.32583C108.089 9.30917 107.309 9.32583 106.951 9.35081C106.628 9.36746 106.47 9.10933 106.47 8.84288C106.47 8.57643 106.628 8.33496 107.001 8.34328C108.421 8.46818 110.423 8.42655 111.286 8.36826C111.76 8.34328 111.926 8.55145 111.926 8.7846C111.926 9.02607 111.718 9.30085 111.477 9.27587C110.697 9.16762 110.655 9.45905 110.639 9.76714C110.572 10.6498 110.639 12.6065 110.639 12.7064C110.639 13.0145 110.539 13.2227 110.248 13.3226C108.77 14.0137 107.375 14.455 105.531 14.455C100.964 14.455 98.1904 11.549 98.1904 7.13592C98.1904 3.03921 101.022 0.083252 105.947 0.083252C108.264 0.083252 110.373 0.940896 110.473 1.57372C110.539 2.17324 110.572 2.62288 110.622 3.44722C110.639 3.77196 110.207 3.94682 109.908 3.94682C109.742 3.94682 109.601 3.90518 109.576 3.79694C109.327 2.66451 107.915 0.915917 105.316 0.915917C102.11 0.915917 100.308 3.68869 100.308 6.77787C100.308 10.3167 102.517 13.4142 106.046 13.4142C107.093 13.4142 107.948 13.1811 108.488 12.7814" fill="white"/>
<path d="M117.905 13.2893C118.544 13.2893 119.458 13.2477 119.956 13.1478C121.069 12.898 121.6 11.8738 121.849 11.0161C121.949 10.6248 122.173 10.4749 122.398 10.4749C122.705 10.4749 123.012 10.7414 122.929 11.0661C122.663 12.0153 122.439 13.1478 122.356 13.8888C122.331 14.072 122.207 14.2802 121.741 14.2802C119.084 14.2802 119.383 14.1803 115.206 14.1803C114.475 14.1803 113.479 14.2802 113.072 14.2802C112.706 14.3218 112.515 14.072 112.515 13.8056C112.515 13.5391 112.723 13.256 113.022 13.2893C114.334 13.5141 114.4 12.6731 114.417 12.2651C114.6 7.92695 114.542 2.06499 114.417 1.53208C114.309 1.14073 113.769 1.08244 113.105 1.18236C112.781 1.24898 112.615 0.974197 112.615 0.707744C112.615 0.466271 112.756 0.208145 113.105 0.233125C114.865 0.358025 119.333 0.374678 121.509 0.249778C122.331 0.208145 122.555 0.482924 122.539 0.807664C122.514 1.28228 122.373 2.51463 122.331 2.79773C122.29 3.14745 122.024 3.31398 121.8 3.31398C121.575 3.31398 121.384 3.17243 121.384 2.94761C121.443 1.44882 120.654 1.14073 117.232 1.14073C116.369 1.14073 116.31 1.69029 116.269 2.18989C116.227 2.72279 116.211 5.49556 116.252 6.13672C116.269 6.4448 116.377 6.58636 116.618 6.58636C116.991 6.61134 119.034 6.58636 119.408 6.56138C119.956 6.49476 120.213 6.15337 120.213 5.33736C120.213 5.08756 120.471 4.92103 120.72 4.92103C120.969 4.92103 121.193 5.06258 121.193 5.4123C121.077 7.20253 121.119 7.24416 121.177 8.4765C121.193 8.95112 120.928 9.15096 120.662 9.15096C120.396 9.15096 120.13 8.9428 120.147 8.64304C120.189 7.91862 119.989 7.66049 119.491 7.54392C119.101 7.46898 116.908 7.48563 116.584 7.52727C116.294 7.5689 116.277 7.79372 116.277 7.98523C116.261 8.82622 116.277 11.2493 116.344 12.2401C116.36 12.9979 116.593 13.2893 117.921 13.2893" fill="white"/>
<path d="M0.49826 28.8186C0.141174 28.8519 0 28.6521 0 28.4272C0 28.1858 0.166087 27.936 0.456738 27.9776C1.09617 28.0525 1.57782 27.936 1.67747 27.2782C1.9183 25.6545 1.90169 18.8682 1.71069 17.486C1.61934 16.8116 0.988215 16.9614 0.406912 16.9281C0.240826 16.9281 0.132869 16.7616 0.132869 16.5784C0.132869 16.3702 0.282347 16.1704 0.631129 16.1704H4.77499C9.15967 16.1704 12.4316 18.2771 12.4316 22.2405C12.4316 26.8368 9.29254 28.7603 4.95768 28.8186H0.49826ZM10.5216 22.6735C10.5216 19.8924 9.17628 17.0114 4.74177 17.0114C3.81169 17.0114 3.49612 17.1196 3.42969 17.7358C3.32173 18.76 3.39647 24.7385 3.4546 26.3123C3.50443 27.8027 4.62551 27.9859 5.88777 27.9859C8.60328 27.9859 10.5133 26.0458 10.5133 22.6735" fill="white"/>
<path d="M22.9116 17.3943C22.9116 16.9946 22.6459 16.8197 21.6493 16.9446C21.3338 16.9863 21.1677 16.7615 21.1677 16.5366C21.1677 16.3285 21.3172 16.1286 21.6327 16.1453C23.1607 16.2785 23.9745 16.1786 25.0873 16.1286C25.5191 16.1037 25.6769 16.3118 25.6769 16.52C25.6769 16.7448 25.4942 16.9696 25.2534 16.9446C24.5808 16.8447 24.1157 16.928 24.041 17.3443C23.9081 19.8007 24.0244 21.2662 24.0078 23.581C23.9745 26.6036 22.9863 29.0016 19.1996 29.0016C16.3595 29.0016 14.6654 27.5361 14.6156 23.4478C14.574 20.9498 14.5907 19.8756 14.6156 17.3943C14.6156 17.0612 14.3997 16.8697 13.4114 16.928C13.1291 16.9446 12.9796 16.7198 12.9796 16.52C12.9796 16.2952 13.1291 16.087 13.4613 16.1286C14.682 16.2619 16.4508 16.1869 17.3394 16.1286C17.7712 16.1037 17.9539 16.3118 17.9539 16.52C17.9539 16.7448 17.7463 16.9946 17.4473 16.928C16.7664 16.8114 16.3844 17.0029 16.318 17.4109C16.2681 19.1595 16.2681 21.7908 16.3013 23.4311C16.3761 25.7626 16.8577 27.8192 19.7393 27.8192C21.7573 27.8192 22.8452 26.7035 22.9199 23.556C22.9531 21.5659 22.9199 19.4426 22.9199 17.386" fill="white"/>
<path d="M33.4664 23.706V23.6394C33.483 23.4145 33.6159 23.2647 33.9647 23.2647C35.584 23.2647 36.4394 21.7242 36.4394 20.2254C36.4394 18.9015 35.9826 16.6367 33.0595 16.9114C32.5779 16.9447 32.3703 17.1279 32.337 17.6192C32.2374 18.5684 32.2872 21.5077 32.2872 22.1489C32.2872 22.89 32.3537 26.7119 32.4284 27.3614C32.4865 27.7194 32.744 27.886 32.9931 27.9359C33.2837 28.0109 33.6491 27.9359 33.9398 27.9359C34.2719 27.9359 34.4214 28.1857 34.4214 28.4022C34.4214 28.6437 34.2553 28.8685 33.9398 28.8435C32.5779 28.7769 31.6727 28.702 29.6797 28.8435C29.3309 28.8852 29.1814 28.6437 29.1814 28.4022C29.1814 28.1607 29.3309 27.9109 29.6132 27.9359C30.0035 27.9359 30.7094 28.1857 30.7426 27.3031C30.8506 24.9966 30.7592 18.8849 30.6845 17.7274C30.6347 16.7949 30.3523 16.8865 29.6464 16.9447C29.389 16.9614 29.2644 16.7782 29.2644 16.5784C29.2644 16.3286 29.4222 16.0871 29.7212 16.1287C29.8457 16.1287 30.2194 16.2037 31.6727 16.2037C32.6526 16.2037 33.0429 16.1454 33.9979 16.1454C35.7833 16.1454 38.2497 17.1862 38.2497 19.884C38.2497 23.0732 35.8996 24.0474 33.865 24.0474C33.6408 24.0474 33.483 23.9724 33.483 23.706" fill="white"/>
<path d="M42.5265 16.853C42.568 16.7615 42.676 16.7032 42.8836 16.7032C43.44 16.7032 43.739 16.5783 44.1459 16.0204C44.2206 15.9454 44.3203 15.9038 44.4033 15.9038C44.4863 15.9038 44.5694 15.9454 44.5943 16.0037C45.1341 17.5858 48.2316 25.7459 49.0869 27.3113C49.2696 27.6527 49.4939 28.1523 50.2745 28.0441C50.5983 27.9858 50.7727 28.2106 50.7727 28.4354C50.7727 28.6602 50.5983 28.9017 50.3077 28.8601C49.7679 28.8101 47.2019 28.7768 46.1306 28.8601C45.815 28.885 45.6656 28.7019 45.6656 28.4937C45.6656 28.2689 45.8316 28.0274 46.0808 28.0441C46.878 28.1023 47.1769 27.8942 47.0773 27.1698C47.0607 26.8367 46.2967 24.9465 46.1306 24.5219C46.0974 24.4303 45.9977 24.3304 45.8898 24.3137C44.3119 24.1389 42.0615 24.2388 41.447 24.2804C41.0982 24.2971 40.9072 24.3803 40.766 24.6884C40.3757 25.5461 40.0601 26.4786 39.9107 26.9116C39.6117 27.8609 40.0186 28.1523 41.3722 28.0108C41.6878 27.9691 41.8539 28.2106 41.8539 28.4354C41.8539 28.6602 41.6878 28.9017 41.3722 28.8601C40.5169 28.8101 38.7564 28.7768 37.5107 28.8601C37.1951 28.9017 37.0291 28.6602 37.0291 28.4354C37.0291 28.2356 37.1785 28.0274 37.5107 28.0607C38.0505 28.119 38.474 27.7276 38.8311 26.8867C39.0221 26.4953 39.9854 24.2388 42.6428 17.6857C42.784 17.3526 42.4186 17.1611 42.5265 16.8614M43.8303 18.4601C43.7223 18.2353 43.5729 18.0521 43.3653 18.4767C42.8836 19.451 41.8207 21.8074 41.4303 22.9898C41.3224 23.2313 41.4553 23.3478 41.6878 23.3978C41.9701 23.4477 43.6061 23.4977 45.1424 23.3645C45.4413 23.3478 45.6406 23.2146 45.5327 22.8815C45.2919 22.1321 44.3036 19.5092 43.822 18.4684" fill="white"/>
<path d="M61.7676 28.2356C61.9171 28.2356 61.9836 28.4271 61.9836 28.5936C61.9836 28.7269 61.942 28.8351 61.8507 28.8934C61.6846 28.9683 60.9289 29.1016 60.4057 29.1016C58.5871 29.1016 56.7601 25.6294 55.6474 24.1805C55.4065 23.8475 55.1491 23.5977 54.9083 23.5477C54.6841 23.4894 54.3519 23.4728 54.1858 23.4894C54.028 23.5061 53.8702 23.5061 53.8536 23.9557C53.837 24.4803 53.9284 26.7868 53.9699 27.1448C54.0778 28.1107 54.6176 27.9858 55.365 27.9192C55.6557 27.9192 55.8218 28.144 55.8218 28.3855C55.8218 28.627 55.6557 28.8684 55.3401 28.8518C53.9865 28.8018 52.5332 28.7435 50.9554 28.8518C50.6149 28.8768 50.4572 28.6603 50.4572 28.4271C50.4572 28.1607 50.6399 27.9025 50.9886 27.9358C51.4038 27.9941 52.1429 28.0358 52.2011 27.1531C52.3505 24.8467 52.2924 18.8098 52.2011 17.6358C52.1512 17.0363 51.9104 16.9863 51.1879 17.1279C50.8973 17.2028 50.7312 17.003 50.7312 16.7781C50.7312 16.5533 50.8807 16.3118 51.1796 16.2952C52.7575 16.1869 54.2854 16.1287 54.8584 16.1287C57.8895 16.1287 60.1483 17.0946 60.1483 19.4593C60.1483 21.8241 57.8895 22.8399 57.4992 23.0148C57.1421 23.173 57.0923 23.3728 57.3414 23.7142C58.3463 24.9383 60.2397 28.2439 61.7676 28.2439M55.0578 22.6484C56.9511 22.6484 58.2715 21.3411 58.2715 19.7091C58.2715 17.6608 56.893 16.8697 54.9332 16.8697C53.7789 16.8697 53.7789 17.3527 53.7789 17.5359C53.754 18.152 53.8121 20.9831 53.8121 21.6742C53.8287 22.3237 53.8619 22.6401 54.3104 22.6401H55.0578V22.6484Z" fill="white"/>
<path d="M62.3571 28.8518C62.0167 28.8767 61.8506 28.6602 61.8506 28.4521C61.8506 28.2023 62.0416 27.9691 62.3156 27.9858C63.5613 28.0774 63.5945 27.4029 63.6111 27.0865C63.744 24.6135 63.7274 20.6417 63.6277 17.4942C63.5945 16.9197 63.2457 16.9197 62.4568 16.9696C62.1661 16.9946 62.0001 16.7448 62.0001 16.52C62.0001 16.2952 62.1495 16.087 62.4568 16.1286C64.0346 16.2785 68.4276 16.1869 70.3625 16.1286C70.894 16.1037 70.9521 16.3701 70.9521 16.4617C70.9521 16.7531 70.7943 18.0105 70.7279 18.6433C70.6947 18.9014 70.4456 19.0097 70.2297 19.0097C70.0137 19.0097 69.7978 18.9014 69.8061 18.7016C69.939 17.311 69.4241 16.9446 66.2436 16.9446C65.2969 16.9446 65.3135 17.3527 65.2969 17.8189C65.2969 17.8189 65.2471 21.6242 65.2471 21.8824C65.2471 22.257 65.3882 22.2404 65.5211 22.257C65.9695 22.332 67.6387 22.307 67.9543 22.2904C68.7349 22.257 68.9425 21.899 68.9425 21.1663C68.9425 20.9414 69.1833 20.8165 69.4075 20.8165C69.6234 20.8165 69.831 20.9414 69.831 21.2495C69.7978 22.1655 69.7978 23.2896 69.8061 24.0223C69.8061 24.4386 69.5902 24.5968 69.366 24.5968C69.1252 24.5968 68.8843 24.4303 68.8843 24.1888C68.8843 23.5144 68.6767 23.1813 68.2532 23.148C67.8629 23.1147 65.9529 23.1147 65.5377 23.1647C65.3716 23.1896 65.2221 23.3145 65.2221 23.4977C65.2221 24.4886 65.3135 26.6119 65.3301 27.0698C65.3716 27.8442 65.5875 28.0274 67.1737 27.8942C67.4477 27.8526 67.6304 28.119 67.6304 28.3771C67.6304 28.6186 67.4643 28.8851 67.0823 28.8434C66.227 28.7768 63.4367 28.7602 62.3405 28.8434" fill="white"/>
<path d="M81.1582 17.3943C81.1582 16.9946 80.8924 16.8197 79.8876 16.9446C79.572 16.9863 79.406 16.7615 79.406 16.5366C79.406 16.3285 79.5554 16.1286 79.871 16.1453C81.3907 16.2785 82.2128 16.1786 83.3256 16.1286C83.7574 16.1037 83.9235 16.3118 83.9235 16.52C83.9235 16.7448 83.7408 16.9696 83.5 16.9446C82.8273 16.8447 82.3706 16.928 82.2959 17.3443C82.163 19.8007 82.271 21.2662 82.2543 23.581C82.2211 26.6036 81.2329 29.0016 77.4461 29.0016C74.6061 29.0016 72.912 27.5361 72.8621 23.4478C72.8206 20.9498 72.8455 19.8756 72.8621 17.3943C72.8621 17.0612 72.6628 16.8697 71.6497 16.928C71.3757 16.9446 71.2179 16.7198 71.2179 16.52C71.2179 16.2952 71.3757 16.087 71.7078 16.1286C72.9369 16.2619 74.6974 16.1869 75.586 16.1286C76.0178 16.1037 76.2005 16.3118 76.2005 16.52C76.2005 16.7448 76.0012 16.9946 75.7022 16.928C75.0047 16.8114 74.6393 17.0029 74.5728 17.4109C74.5064 19.1595 74.5064 21.7908 74.5479 23.4311C74.6227 25.7626 75.1043 27.8192 77.9776 27.8192C79.9873 27.8192 81.0834 26.7035 81.1582 23.556C81.1997 21.5659 81.1582 19.4426 81.1582 17.386" fill="white"/>
<path d="M87.0709 18.0689C87.0709 18.0689 87.1374 24.3139 87.2536 26.4872C87.2951 27.2782 87.5692 27.9776 88.873 27.9776C89.1636 27.961 89.3214 28.2358 89.3214 28.4772C89.3214 28.6854 89.2134 28.8686 88.9477 28.8436C88.2252 28.777 86.9215 28.7021 84.8952 28.8436C84.6295 28.8852 84.48 28.6438 84.48 28.4023C84.48 28.1775 84.6128 27.9527 84.9118 27.9693C85.9914 28.0609 86.1408 27.095 86.1575 26.2707C86.1907 25.0966 86.1242 21.0998 85.9664 17.7608C85.9498 17.1197 85.8419 16.8116 85.0198 16.9199C84.7623 16.9532 84.6128 16.695 84.6128 16.4702C84.6128 16.2704 84.7457 16.0789 85.053 16.1205C86.0744 16.2704 87.7519 16.1205 87.7519 16.1205C88.3996 16.1371 88.6488 16.6367 88.682 16.8283C89.5124 19.2513 91.4473 23.2564 92.4355 25.6212C92.5684 25.9126 92.7511 25.846 92.8674 25.5796C94.2542 22.8318 96.4548 17.3695 96.6707 16.6784C96.7289 16.5701 96.8783 16.1621 97.4846 16.1621H99.8098C100.308 16.1621 100.482 16.3453 100.482 16.5535C100.482 16.7616 100.316 16.9615 100.092 16.9282C98.9046 16.7616 98.9295 17.0614 98.9046 17.8608C98.8631 20.1672 98.8465 24.9301 98.9544 27.2782C98.971 27.5696 99.0292 28.1442 100.175 27.961C100.516 27.9193 100.682 28.1442 100.682 28.3856C100.682 28.6271 100.516 28.8936 100.217 28.8519C99.7433 28.802 98.1323 28.6521 95.8735 28.8519C95.5995 28.8769 95.4832 28.6604 95.4832 28.4523C95.4832 28.2025 95.6161 27.9443 95.8735 27.9693C97.1607 28.0776 97.252 27.8694 97.2686 26.9951C97.3434 25.1549 97.2853 20.3421 97.252 18.1272C97.252 17.9773 97.1275 17.8691 97.061 18.0856L92.5684 28.6521C92.4937 28.802 92.3442 28.8769 92.1781 28.8769C92.0286 28.8769 91.8625 28.802 91.8044 28.6521C91.8044 28.6521 88.6321 21.1748 87.3284 17.994C87.2702 17.8857 87.0543 17.8275 87.0709 18.0689Z" fill="white"/>
<path d="M106.287 27.9608C106.868 27.9608 107.691 27.9191 108.139 27.8275C109.144 27.6027 109.625 26.6701 109.85 25.8958C109.941 25.5377 110.149 25.4045 110.356 25.4045C110.639 25.4045 110.913 25.646 110.846 25.9457C110.597 26.8034 110.398 27.8276 110.323 28.5103C110.298 28.6685 110.19 28.8517 109.767 28.8517C107.35 28.8517 107.632 28.7685 103.837 28.7685C103.19 28.7685 102.276 28.8517 101.902 28.8517C101.57 28.8934 101.404 28.6602 101.404 28.4271C101.404 28.1939 101.587 27.9191 101.869 27.9608C103.057 28.1606 103.115 27.4029 103.14 27.0282C103.306 23.0897 103.256 17.7856 103.14 17.3027C103.04 16.9446 102.542 16.8863 101.944 16.9863C101.653 17.0362 101.504 16.7947 101.504 16.5533C101.504 16.3285 101.637 16.1036 101.944 16.1286C103.547 16.2369 107.599 16.2618 109.567 16.1453C110.306 16.1036 110.506 16.3451 110.489 16.6449C110.473 17.0779 110.34 18.1936 110.306 18.4601C110.265 18.7765 110.032 18.918 109.825 18.918C109.617 18.918 109.451 18.7931 109.451 18.585C109.509 17.2277 108.778 16.9446 105.681 16.9446C104.9 16.9446 104.842 17.4526 104.809 17.8939C104.776 18.3768 104.751 20.8998 104.784 21.4743C104.809 21.7491 104.9 21.8823 105.116 21.8823C105.457 21.899 107.309 21.8823 107.649 21.8657C108.156 21.8074 108.372 21.491 108.372 20.7416C108.372 20.5251 108.612 20.3752 108.837 20.3752C109.061 20.3752 109.26 20.5084 109.26 20.8248C109.152 22.4402 109.185 22.4818 109.243 23.5976C109.26 24.0223 109.019 24.2138 108.778 24.2138C108.538 24.2138 108.297 24.0306 108.313 23.7475C108.355 23.0897 108.164 22.8565 107.715 22.765C107.367 22.6817 105.382 22.7067 105.075 22.74C104.817 22.7816 104.801 22.9814 104.801 23.1563C104.776 23.914 104.801 26.1206 104.85 27.0115C104.867 27.7026 105.075 27.9608 106.287 27.9608Z" fill="white"/>
<path d="M121.31 17.3943C121.31 16.9946 121.052 16.8197 120.047 16.9446C119.732 16.9863 119.566 16.7615 119.566 16.5366C119.566 16.3285 119.715 16.1286 120.031 16.1453C121.55 16.2785 122.373 16.1786 123.485 16.1286C123.909 16.1037 124.075 16.3118 124.075 16.52C124.075 16.7448 123.892 16.9696 123.651 16.9446C122.979 16.8447 122.505 16.928 122.439 17.3443C122.314 19.8007 122.422 21.2662 122.398 23.581C122.364 26.6036 121.376 29.0016 117.589 29.0016C114.749 29.0016 113.055 27.5361 112.989 23.4478C112.956 20.9498 112.98 19.8756 112.989 17.3943C112.989 17.0612 112.781 16.8697 111.785 16.928C111.502 16.9446 111.361 16.7198 111.361 16.52C111.361 16.2952 111.511 16.087 111.843 16.1286C113.063 16.2619 114.832 16.1869 115.721 16.1286C116.153 16.1037 116.335 16.3118 116.335 16.52C116.335 16.7448 116.128 16.9946 115.829 16.928C115.148 16.8114 114.774 17.0029 114.691 17.4109C114.641 19.1595 114.641 21.7908 114.675 23.4311C114.741 25.7626 115.231 27.8192 118.104 27.8192C120.122 27.8192 121.21 26.7035 121.285 23.556C121.326 21.5659 121.285 19.4426 121.285 17.386" fill="white"/>
<path d="M135.784 28.2356C135.934 28.2356 136 28.4271 136 28.5936C136 28.7269 135.967 28.8351 135.867 28.8934C135.709 28.9683 134.945 29.1016 134.422 29.1016C132.604 29.1016 130.785 25.6294 129.664 24.1805C129.423 23.8475 129.166 23.5977 128.925 23.5477C128.701 23.4894 128.377 23.4728 128.202 23.4894C128.053 23.5061 127.887 23.5061 127.862 23.9557C127.845 24.4803 127.945 26.7868 127.978 27.1448C128.086 28.1107 128.626 27.9858 129.365 27.9192C129.664 27.9192 129.822 28.144 129.822 28.3855C129.822 28.627 129.664 28.8684 129.34 28.8518C127.986 28.8018 126.541 28.7435 124.955 28.8518C124.623 28.8768 124.449 28.6603 124.449 28.4271C124.449 28.1607 124.631 27.9025 124.989 27.9358C125.395 27.9941 126.135 28.0358 126.201 27.1531C126.35 24.8467 126.292 18.8098 126.201 17.6358C126.143 17.0363 125.902 16.9863 125.196 17.1279C124.897 17.2028 124.723 17.003 124.723 16.7781C124.723 16.5533 124.881 16.3118 125.171 16.2952C126.749 16.1869 128.269 16.1287 128.85 16.1287C131.873 16.1287 134.14 17.0946 134.14 19.4593C134.14 21.8241 131.873 22.8399 131.491 23.0148C131.134 23.173 131.076 23.3728 131.333 23.7142C132.346 24.9383 134.24 28.2439 135.768 28.2439M129.074 22.6484C130.976 22.6484 132.28 21.3411 132.28 19.7091C132.28 17.6608 130.91 16.8697 128.941 16.8697C127.787 16.8697 127.787 17.3527 127.787 17.5359C127.762 18.152 127.829 20.9831 127.829 21.6742C127.845 22.3237 127.878 22.6401 128.327 22.6401H129.066L129.074 22.6484Z" fill="white"/>
<path d="M16.8578 37.8281L18.0204 41.267H18.0371L19.1415 37.8281H20.6861V42.8241H19.6564V39.2853H19.6398L18.4191 42.8241H17.572L16.3513 39.3186H16.3347V42.8241H15.3049V37.8281H16.8495H16.8578Z" fill="white"/>
<path d="M26.5739 37.8281L28.4341 42.8241H27.2964L26.9227 41.7083H25.0625L24.6722 42.8241H23.5677L25.4528 37.8281H26.5739ZM26.6404 40.8923L26.0092 39.0605H25.9926L25.3449 40.8923H26.6404Z" fill="white"/>
<path d="M32.4118 37.8281V42.8241H31.3157V37.8281H32.4118Z" fill="white"/>
<path d="M36.6553 41.5917C36.7135 41.7083 36.7965 41.7999 36.8962 41.8748C36.9958 41.9497 37.1121 41.9997 37.2449 42.033C37.3778 42.0663 37.519 42.083 37.6602 42.083C37.7598 42.083 37.8595 42.0746 37.9757 42.058C38.0837 42.0413 38.1916 42.008 38.2913 41.9664C38.3909 41.9164 38.474 41.8581 38.5321 41.7749C38.5985 41.6916 38.6318 41.5917 38.6318 41.4668C38.6318 41.3336 38.5902 41.2253 38.4989 41.1337C38.4159 41.0505 38.2996 40.9839 38.1584 40.9256C38.0172 40.8673 37.8595 40.8173 37.6851 40.7757C37.5107 40.7341 37.328 40.6841 37.1453 40.6341C36.9626 40.5842 36.7799 40.5342 36.5972 40.4593C36.4228 40.3927 36.265 40.3011 36.1239 40.1928C35.9827 40.0846 35.8747 39.9513 35.7834 39.7931C35.7003 39.6349 35.6505 39.4351 35.6505 39.2103C35.6505 38.9521 35.7086 38.7273 35.8166 38.5441C35.9246 38.3526 36.0657 38.1944 36.2484 38.0695C36.4228 37.9446 36.6221 37.853 36.8463 37.7864C37.0705 37.7281 37.2948 37.6948 37.519 37.6948C37.7764 37.6948 38.0339 37.7281 38.2664 37.7864C38.5072 37.8447 38.7231 37.9363 38.9058 38.0695C39.0885 38.2028 39.238 38.3693 39.3459 38.5691C39.4539 38.769 39.512 39.0188 39.512 39.3102H38.4491C38.4408 39.1603 38.4075 39.0354 38.3577 38.9355C38.3079 38.8356 38.2332 38.7606 38.1418 38.7023C38.0505 38.6441 37.9508 38.6108 37.8345 38.5858C37.7183 38.5608 37.5937 38.5525 37.4609 38.5525C37.3695 38.5525 37.2865 38.5608 37.1951 38.5774C37.1038 38.5941 37.029 38.6274 36.9543 38.6774C36.8796 38.7273 36.8214 38.7856 36.7799 38.8522C36.7301 38.9188 36.7135 39.0104 36.7135 39.1187C36.7135 39.2186 36.7301 39.2935 36.7716 39.3602C36.8048 39.4184 36.8796 39.4767 36.9875 39.5267C37.0955 39.5766 37.2449 39.6266 37.4442 39.6766C37.6352 39.7265 37.8927 39.7931 38.1999 39.8764C38.2913 39.8931 38.4242 39.9264 38.5902 39.9763C38.7563 40.0263 38.9224 40.1012 39.0802 40.2095C39.2463 40.3177 39.3875 40.4593 39.5037 40.6425C39.62 40.8256 39.6781 41.0505 39.6781 41.3336C39.6781 41.5584 39.6366 41.7749 39.5452 41.9664C39.4539 42.1662 39.321 42.3328 39.1466 42.4743C38.9722 42.6159 38.7563 42.7241 38.4989 42.8074C38.2415 42.8907 37.9425 42.924 37.602 42.924C37.328 42.924 37.0622 42.8907 36.8048 42.824C36.5474 42.7574 36.3149 42.6492 36.1239 42.5076C35.9246 42.3661 35.7668 42.1746 35.6505 41.9581C35.5342 41.7416 35.4761 41.4668 35.4844 41.1587H36.5474C36.5474 41.3252 36.5806 41.4668 36.6387 41.5834L36.6553 41.5917Z" fill="white"/>
<path d="M42.7424 39.3101C42.8503 38.9937 43.0164 38.7106 43.224 38.4692C43.4316 38.2277 43.6891 38.0445 43.9963 37.9113C44.3036 37.778 44.6441 37.7114 45.0261 37.7114C45.4081 37.7114 45.7569 37.778 46.0558 37.9113C46.3548 38.0445 46.6122 38.236 46.8281 38.4692C47.0357 38.7106 47.2018 38.9854 47.3098 39.3101C47.4177 39.6349 47.4758 39.9763 47.4758 40.351C47.4758 40.7257 47.4177 41.0587 47.3098 41.3668C47.2018 41.6832 47.0357 41.958 46.8281 42.1912C46.6205 42.4243 46.3631 42.6075 46.0558 42.7407C45.7569 42.8739 45.4081 42.9406 45.0261 42.9406C44.6441 42.9406 44.3036 42.8739 43.9963 42.7407C43.6891 42.6075 43.4316 42.4243 43.224 42.1912C43.0164 41.958 42.8503 41.6832 42.7424 41.3668C42.6344 41.0504 42.5763 40.709 42.5763 40.351C42.5763 39.9929 42.6344 39.6349 42.7424 39.3101ZM43.7472 40.9588C43.797 41.1587 43.8718 41.3335 43.9797 41.4917C44.0877 41.6499 44.2289 41.7748 44.3949 41.8747C44.5693 41.9747 44.7769 42.0163 45.0261 42.0163C45.2752 42.0163 45.4828 41.9663 45.6572 41.8747C45.8316 41.7832 45.9728 41.6499 46.0724 41.4917C46.1721 41.3335 46.2551 41.1503 46.3049 40.9588C46.3548 40.759 46.3797 40.5591 46.3797 40.3426C46.3797 40.1262 46.3548 39.9097 46.3049 39.7015C46.2551 39.4933 46.1804 39.3101 46.0724 39.1519C45.9645 38.9937 45.8233 38.8605 45.6572 38.7689C45.4828 38.6773 45.2752 38.6274 45.0261 38.6274C44.7769 38.6274 44.5693 38.6773 44.3949 38.7689C44.2206 38.8605 44.0794 38.9937 43.9797 39.1519C43.8718 39.3101 43.797 39.4933 43.7472 39.7015C43.6974 39.9097 43.6725 40.1178 43.6725 40.3426C43.6725 40.5675 43.6974 40.759 43.7472 40.9588Z" fill="white"/>
<path d="M51.761 37.8281L53.8453 41.1838H53.862V37.8281H54.8917V42.8241H53.7955L51.7194 39.4768H51.7028V42.8241H50.6731V37.8281H51.761Z" fill="white"/>
<path d="M64.8237 37.8281C65.1475 37.8281 65.4465 37.8781 65.7205 37.9863C65.9946 38.0862 66.2354 38.2445 66.443 38.4443C66.6423 38.6525 66.8001 38.9023 66.9164 39.2187C67.0326 39.5268 67.0908 39.8848 67.0908 40.3011C67.0908 40.6675 67.0409 41.0006 66.9496 41.3087C66.8582 41.6167 66.7171 41.8832 66.5261 42.108C66.3351 42.3328 66.1025 42.5077 65.8202 42.6326C65.5378 42.7575 65.2057 42.8241 64.8237 42.8241H62.6729V37.8281H64.8237ZM64.7489 41.8999C64.9067 41.8999 65.0645 41.8749 65.2057 41.8249C65.3551 41.775 65.488 41.6917 65.6043 41.5668C65.7205 41.4419 65.8119 41.292 65.8866 41.1005C65.9531 40.909 65.9946 40.6758 65.9946 40.4011C65.9946 40.1513 65.9697 39.9181 65.9198 39.7183C65.87 39.5184 65.787 39.3436 65.679 39.1937C65.5711 39.0521 65.4216 38.9356 65.2389 38.8606C65.0562 38.7857 64.832 38.7441 64.5579 38.7441H63.7773V41.8915H64.7572L64.7489 41.8999Z" fill="white"/>
<path d="M74.0248 37.8281V38.7524H71.3923V39.8265H73.8089V40.6842H71.3923V41.9082H74.0829V42.8324H70.2961V37.8365H74.0248V37.8281Z" fill="white"/>
<path d="M83.8987 37.8279C84.2142 37.8279 84.4717 37.8696 84.6959 37.9612C84.9118 38.0528 85.0945 38.1693 85.2274 38.3192C85.3685 38.4691 85.4682 38.6356 85.5263 38.8271C85.5927 39.0186 85.6177 39.2185 85.6177 39.4183C85.6177 39.6182 85.5844 39.818 85.5263 40.0095C85.4599 40.201 85.3602 40.3759 85.2274 40.5258C85.0862 40.6756 84.9118 40.7922 84.6959 40.8838C84.48 40.9754 84.2142 41.017 83.8987 41.017H82.7444V42.8073H81.6482V37.8113H83.8987V37.8279ZM83.5997 40.176C83.7243 40.176 83.8488 40.1677 83.9651 40.1511C84.0814 40.1344 84.181 40.0928 84.2724 40.0428C84.3637 39.9929 84.4301 39.9096 84.4883 39.818C84.5464 39.7264 84.5713 39.5932 84.5713 39.435C84.5713 39.2768 84.5464 39.1519 84.4883 39.052C84.4301 38.952 84.3637 38.8771 84.2724 38.8271C84.181 38.7772 84.0814 38.7355 83.9651 38.7189C83.8488 38.7022 83.7243 38.6939 83.5997 38.6939H82.7444V40.1927H83.5997V40.176Z" fill="white"/>
<path d="M91.2314 37.8281L93.0916 42.8241H91.9539L91.5802 41.7083H89.72L89.3297 42.8241H88.2252L90.1103 37.8281H91.2314ZM91.2978 40.8923L90.6667 39.0605H90.6501L90.0023 40.8923H91.2978Z" fill="white"/>
<path d="M98.6637 37.8281C98.888 37.8281 99.0873 37.8614 99.27 37.9364C99.4527 38.0113 99.6021 38.1112 99.7267 38.2361C99.8513 38.361 99.9509 38.5109 100.017 38.6774C100.084 38.844 100.117 39.0188 100.117 39.2103C100.117 39.5018 100.059 39.7599 99.9343 39.9764C99.8097 40.1929 99.6104 40.3511 99.3281 40.4677V40.4843C99.461 40.5176 99.5772 40.5759 99.6603 40.6592C99.7433 40.7425 99.818 40.8257 99.8762 40.934C99.9343 41.0422 99.9758 41.1588 100.001 41.2837C100.026 41.4086 100.042 41.5335 100.051 41.6584C100.051 41.7416 100.059 41.8332 100.067 41.9415C100.067 42.0497 100.084 42.158 100.092 42.2746C100.1 42.3828 100.125 42.491 100.15 42.591C100.175 42.6909 100.217 42.7742 100.266 42.8491H99.1703C99.1122 42.6909 99.0707 42.4994 99.0624 42.2829C99.0541 42.0664 99.0291 41.8499 98.9959 41.6501C98.9627 41.3919 98.8797 41.2004 98.7551 41.0755C98.6305 40.9506 98.4395 40.8923 98.1655 40.8923H97.0693V42.8491H95.9731V37.8531H98.6637V37.8281ZM98.2734 40.0846C98.5226 40.0846 98.7136 40.0264 98.8381 39.9181C98.9627 39.8099 99.0291 39.6267 99.0291 39.3686C99.0291 39.1104 98.9627 38.9522 98.8381 38.844C98.7136 38.7357 98.5226 38.6774 98.2734 38.6774H97.0693V40.0846H98.2734Z" fill="white"/>
<path d="M106.968 37.8281V38.7524H104.56V39.9098H106.644V40.7674H104.56V42.8324H103.464V37.8365H106.968V37.8281Z" fill="white"/>
<path d="M113.711 42.4409C113.338 42.774 112.814 42.9322 112.15 42.9322C111.486 42.9322 110.954 42.7656 110.581 42.4409C110.207 42.1162 110.024 41.6082 110.024 40.9254V37.8196H111.12V40.9254C111.12 41.0587 111.129 41.1919 111.154 41.3251C111.178 41.4584 111.228 41.5749 111.303 41.6748C111.378 41.7748 111.477 41.858 111.61 41.9163C111.743 41.9746 111.918 42.0079 112.142 42.0079C112.532 42.0079 112.806 41.9246 112.956 41.7415C113.105 41.5666 113.18 41.2918 113.18 40.9171V37.8113H114.276V40.9171C114.276 41.5916 114.085 42.0995 113.711 42.4242V42.4409Z" fill="white"/>
<path d="M119.209 37.8281L120.371 41.267H120.388L121.492 37.8281H123.037V42.8241H122.007V39.2853H121.991L120.77 42.8241H119.923L118.702 39.3186H118.686V42.8241H117.656V37.8281H119.2H119.209Z" fill="white"/>
<path fill-rule="evenodd" clip-rule="evenodd" d="M95.641 70.2101C97.5842 70.5182 96.1559 71.3426 97.8998 72.4667C99.8098 73.699 101.28 73.4575 103.489 73.4575C109.509 73.4409 110.747 75.0479 116.626 74.2152C118.146 73.2077 120.612 71.4425 122.481 71.1927C123.801 71.0178 123.527 73.9738 121.933 73.1827C120.903 73.9155 118.245 74.9896 116.958 75.4726C112.474 75.6807 108.098 74.7648 103.671 74.3651C100.084 74.0404 99.7683 75.8473 96.9863 73.341C97.1192 74.3651 96.787 75.6474 96.3054 76.5967C94.5947 76.7549 94.2625 75.1895 93.5567 74.2486C91.0072 76.3885 88.1671 77.2628 84.9617 75.3976C81.8974 77.0713 80.0787 75.0979 77.8947 73.0995C77.5044 73.5241 77.0643 73.9155 76.6906 74.3651C76.2421 74.4484 76.0926 74.3735 75.7522 74.54C70.8028 74.1736 73.02 68.6614 75.9266 67.3458C78.9826 65.9719 81.0835 70.5848 79.1819 71.2843C78.9244 71.2759 77.7867 68.6114 77.3632 68.3283C75.503 68.7363 74.2325 69.6606 74.274 71.7672C74.4318 74.565 76.7487 72.1669 76.8234 70.3184C77.0476 70.2351 77.0975 70.002 77.2968 69.902C77.712 69.8687 77.9528 70.002 78.1687 70.1435C78.2269 72.1752 81.5403 75.6724 84.098 74.9064C81.8392 72.5416 81.2995 70.5599 82.678 67.6788C84.5132 63.8402 88.6239 66.6463 86.7803 69.4857C86.2156 69.3109 85.2357 66.8378 85.161 66.7129C79.8545 68.5282 86.4481 80.2104 92.8923 73.2244C91.1235 69.9437 90.5007 66.6796 89.9858 63.0992C89.9443 62.7495 90.6335 52.7658 93.1082 57.0041C95.0016 61.1008 97.2189 65.6804 95.6493 70.2018C95.94 70.2518 96.2057 68.6114 95.6493 70.2018L95.641 70.2101ZM91.0737 58.8193C90.8827 62.941 91.6051 68.1035 93.7643 71.7755C96.2888 67.1626 93.1497 64.0484 93.1497 59.7102C92.5684 59.219 92.4356 58.303 91.9539 57.7285C91.8626 57.7202 91.8543 57.6452 91.7463 57.6619C91.5387 58.0532 91.3394 58.4696 91.0737 58.811C91.0487 59.3355 91.3394 58.4696 91.0737 58.811V58.8193ZM94.3622 73.0412C94.6694 73.7823 95.0348 74.4484 95.5746 74.973C95.5082 73.316 95.8653 71.8755 95.4417 70.7514C95.2009 71.6257 94.7608 72.3084 94.3622 73.0412C94.7608 72.3168 94.6694 73.7823 94.3622 73.0412Z" fill="white"/>
<path fill-rule="evenodd" clip-rule="evenodd" d="M45.9977 51.1838C46.0558 51.5419 46.2634 52.0748 46.0974 52.3662C52.8986 51.9582 72.9204 62.5331 60.2729 67.4125C63.5531 68.3284 68.3613 68.4533 71.2512 70.2186C73.4518 71.5675 71.6996 78.795 68.9841 78.387C68.7017 75.1812 73.3023 71.734 67.971 70.6599C66.3931 70.3268 56.6771 69.2277 56.9096 67.2626C57.2584 64.29 66.4181 64.2067 60.9538 60.1516C55.9131 56.413 53.3304 53.7818 47.26 53.89C49.6931 68.0453 53.7955 82.3338 52.7408 82.975C51.0717 83.9992 45.6406 59.2191 44.395 54.1648C43.4981 54.4229 42.7839 54.2564 42.2109 53.6985C42.1694 53.3904 45.6489 50.8924 46.0226 51.1838C44.8351 50.2429 46.0808 51.5419 46.0226 51.1838H45.9977Z" fill="white"/>
<path d="M47.2849 71.9422C46.1638 74.4984 44.3618 72.7332 42.2774 71.326C42.0117 70.9846 41.6961 70.7348 41.1314 70.9596C40.4754 73.7074 39.4207 76.755 35.227 77.2795C25.3532 78.4786 16.6668 57.1957 29.7129 56.1548C33.425 56.6045 37.2616 58.8194 38.7896 62.0001C39.1384 62.7079 39.0968 66.1468 39.4705 66.4632C39.8276 66.6048 40.0186 65.972 40.002 65.7471C45.2005 62.225 24.531 45.7216 21.9152 61.5838C20.6529 69.3026 26.9559 82.1839 37.7183 78.9449C39.9273 78.1955 41.6546 74.3902 42.3023 73.4493C43.5313 74.1654 45.3334 75.6309 47.4925 74.5984C48.8378 73.9489 49.2364 72.4418 49.2447 70.7598L48.0655 68.9695C48.0489 69.7772 47.833 70.6682 47.2766 71.9338L47.2849 71.9422Z" fill="white"/>
<path d="M3.04773 67.0046C3.04773 66.6881 3.04773 66.4383 3.03943 66.2552C3.03943 66.0636 3.00621 65.9221 2.95638 65.8222C2.90656 65.7223 2.83182 65.6556 2.73217 65.6223C2.63252 65.589 2.48304 65.5557 2.30034 65.5391C2.26713 65.5391 2.23391 65.5224 2.2173 65.4808C2.20069 65.4475 2.18408 65.4058 2.18408 65.3725C2.18408 65.3392 2.18408 65.2976 2.20899 65.2643C2.2256 65.231 2.25882 65.206 2.30034 65.206C2.50795 65.1893 2.74878 65.1727 3.01451 65.1394C3.28025 65.1144 3.54599 65.0561 3.81173 64.9729C3.91138 64.9479 3.97782 64.9479 4.01103 64.9895C4.04425 65.0311 4.06086 65.0728 4.06916 65.1144V68.2452C4.06916 68.2452 4.06916 68.2702 4.07747 68.2702C4.09408 68.2702 4.10238 68.2702 4.11069 68.2452C4.25186 68.0371 4.44286 67.8455 4.70029 67.679C4.95773 67.5125 5.27329 67.4292 5.65529 67.4292C5.97086 67.4292 6.2449 67.4958 6.48572 67.6291C6.72655 67.7623 6.92585 67.9455 7.09194 68.162C7.25803 68.3868 7.38259 68.6366 7.46563 68.928C7.54868 69.2194 7.5902 69.5192 7.5902 69.8356C7.5902 70.3186 7.51546 70.7349 7.36598 71.0846C7.21651 71.4343 7.0172 71.7258 6.75977 71.9589C6.50233 72.1921 6.21168 72.3586 5.87951 72.4752C5.54734 72.5917 5.19025 72.6417 4.82486 72.6417C4.56742 72.6417 4.30169 72.625 4.01103 72.5917C3.72038 72.5584 3.40482 72.4835 3.05604 72.3586V67.0046H3.04773ZM4.06916 71.4427C4.06916 71.4843 4.09408 71.5509 4.1439 71.6425C4.19373 71.7258 4.26847 71.809 4.35982 71.8923C4.45116 71.9756 4.55912 72.0422 4.68368 72.1088C4.80825 72.1671 4.94942 72.2004 5.0989 72.2004C5.35634 72.2004 5.58055 72.1421 5.75494 72.0172C5.92933 71.9006 6.07051 71.7341 6.17016 71.5259C6.26981 71.3178 6.34455 71.0846 6.38607 70.8098C6.42759 70.5434 6.4442 70.2603 6.4442 69.9605C6.4442 69.7024 6.42759 69.4692 6.40268 69.2444C6.37777 69.0196 6.31964 68.8281 6.2449 68.6616C6.17016 68.495 6.0622 68.3618 5.92103 68.2619C5.77986 68.162 5.60547 68.112 5.38125 68.112C5.19025 68.112 5.01586 68.1453 4.85808 68.2202C4.70029 68.2952 4.55912 68.3785 4.44286 68.4784C4.3266 68.5783 4.23525 68.6949 4.16882 68.8198C4.10238 68.9447 4.06916 69.0529 4.06916 69.1445V71.4343V71.4427Z" fill="white"/>
<path d="M11.1029 71.1264C11.1279 71.168 11.1528 71.1847 11.186 71.1847C11.2192 71.1847 11.2441 71.1597 11.2524 71.1264C11.4766 70.6851 11.6759 70.2521 11.842 69.8441C12.0081 69.4361 12.1659 69.0364 12.2905 68.6617C12.3403 68.5368 12.3652 68.4285 12.3652 68.3369C12.3652 68.2537 12.3486 68.1954 12.3071 68.1371C12.2656 68.0871 12.2157 68.0455 12.1576 68.0205C12.0995 67.9956 12.033 67.9706 11.9583 67.9539C11.8919 67.9373 11.8337 67.9289 11.7756 67.9206C11.7341 67.9206 11.7009 67.8956 11.6843 67.8623C11.6676 67.829 11.6593 67.7957 11.6593 67.7624C11.6593 67.7291 11.6676 67.6958 11.6926 67.6625C11.7175 67.6375 11.7424 67.6208 11.7756 67.6208C11.9168 67.6208 12.0579 67.6292 12.1991 67.6458C12.3403 67.6625 12.4898 67.6708 12.6309 67.6708C12.797 67.6708 12.9714 67.6625 13.1458 67.6458C13.3202 67.6292 13.4614 67.6208 13.561 67.6208C13.5942 67.6208 13.6275 67.6375 13.6441 67.6625C13.6607 67.6875 13.669 67.7291 13.669 67.7707C13.669 67.804 13.6607 67.8373 13.6441 67.8707C13.6275 67.904 13.6026 67.9206 13.561 67.9206C13.4531 67.9373 13.3617 67.9622 13.287 67.9956C13.2122 68.0289 13.1541 68.0871 13.1043 68.1538C13.0545 68.2204 13.0046 68.312 12.9548 68.4119C12.905 68.5201 12.8469 68.645 12.7804 68.7866C12.5728 69.2445 12.3569 69.7358 12.1244 70.2521C11.9002 70.7683 11.6593 71.3012 11.4102 71.8508C11.1777 72.3587 10.9369 72.8583 10.696 73.3496C10.4552 73.8409 10.2227 74.2988 9.99847 74.7318C9.94034 74.8401 9.8656 74.9649 9.78256 75.1065C9.69952 75.2481 9.59156 75.3813 9.4753 75.5062C9.35904 75.6311 9.21787 75.7393 9.06839 75.8309C8.91891 75.9142 8.75282 75.9642 8.57013 75.9642C8.40404 75.9642 8.24626 75.9225 8.08848 75.8309C7.939 75.7393 7.85596 75.5895 7.85596 75.3896C7.85596 75.2397 7.90578 75.1065 7.99713 74.9983C8.08848 74.89 8.21304 74.8317 8.37083 74.8317C8.43726 74.8317 8.48709 74.84 8.5203 74.8734C8.55352 74.8983 8.58674 74.9233 8.61996 74.9566C8.65317 74.9816 8.68639 75.0149 8.72791 75.0399C8.76943 75.0649 8.81926 75.0815 8.87739 75.0815C8.96043 75.0815 9.04348 75.0316 9.15143 74.9316C9.25939 74.8317 9.35904 74.6985 9.4753 74.5486C9.59156 74.3987 9.69952 74.2156 9.81578 74.024C9.93204 73.8325 10.0317 73.641 10.123 73.4662C10.2144 73.283 10.2974 73.1248 10.3639 72.9749C10.4303 72.8333 10.4801 72.7251 10.5133 72.6585C10.5466 72.5752 10.5715 72.4919 10.5715 72.4253C10.5715 72.3504 10.5549 72.2838 10.53 72.2255C10.2974 71.7425 10.04 71.2096 9.75765 70.6268C9.4753 70.0356 9.20956 69.4527 8.95213 68.8615C8.87739 68.6867 8.81095 68.5451 8.75282 68.4369C8.69469 68.3286 8.63656 68.237 8.57013 68.1787C8.512 68.1121 8.43726 68.0622 8.35422 68.0289C8.27117 67.9955 8.17152 67.9622 8.04696 67.9456C8.01374 67.9456 7.98052 67.9206 7.96391 67.8873C7.9473 67.854 7.939 67.8207 7.939 67.7874C7.939 67.7541 7.9473 67.7208 7.97222 67.6875C7.99713 67.6625 8.02204 67.6458 8.05526 67.6458C8.27948 67.6458 8.49539 67.6542 8.703 67.6708C8.91061 67.6875 9.11821 67.6958 9.32582 67.6958C9.53343 67.6958 9.74104 67.6875 9.94865 67.6708C10.148 67.6542 10.3556 67.6458 10.5715 67.6458C10.6047 67.6458 10.6379 67.6625 10.6545 67.6875C10.6711 67.7124 10.6794 67.7458 10.6794 67.7874C10.6794 67.829 10.6711 67.8623 10.6545 67.8873C10.6379 67.9123 10.613 67.9373 10.5715 67.9456C10.339 67.9789 10.1729 68.0205 10.0815 68.0788C9.99017 68.1371 9.94034 68.2204 9.94034 68.3203C9.94034 68.4618 9.97356 68.62 10.04 68.7783C10.1895 69.1863 10.3556 69.5943 10.5383 70.0023C10.721 70.4103 10.9036 70.7933 11.0946 71.1597L11.1029 71.1264Z" fill="white"/>
<path d="M13.5278 74.4401L15.7368 65.0227H16.4427L14.2005 74.4401H13.5278Z" fill="white"/>
</g>
<defs>
<clipPath id="clip0_71_838">
<rect width="136" height="83" fill="white"/>
</clipPath>
</defs>
</svg>
